<svg width="1440" height="1024" viewBox="0 0 1440 1024" fill="none" xmlns="http://www.w3.org/2000/svg">
<path d="M1046 122.817C1046 205.333 839.156 198.454 768.56 253.865C662.694 336.961 336.03 228.114 475.611 352.91C575.559 464.334 486.812 493.057 425.148 499C108.351 499 0 386.848 0 213.606C0 89.7393 6.80352e-05 19.5235 0 -9.28972C119.543 -9.28973 186.711 -9.28974 425.148 -9.28972C741.946 -9.28972 1046 -47.7249 1046 122.817Z" fill="#FFF3E1"/>
<path d="M479 872.92C479 782.345 671.804 789.896 737.608 729.074C836.288 637.863 1140.78 757.34 1010.67 620.357C917.509 498.051 1000.23 466.523 1057.71 460C1353 460 1454 583.104 1454 773.265C1454 909.228 1454 986.3 1454 1017.93C1342.57 1017.93 1279.96 1017.93 1057.71 1017.93C762.415 1017.93 479 1060.12 479 872.92Z" fill="#EEF3FF"/>
<path d="M697.313 -141.99C728.628 -65.328 558.174 -3.1588 521.919 71.7206C467.549 184.011 161.172 191.163 321.795 260.839C445.182 331.229 384.07 387.33 336.288 413.29C79.2246 518.296 -51.2576 450.016 -117.003 289.065C-164.01 173.987 -190.657 108.753 -201.592 81.984C-104.59 42.3603 -50.086 20.0966 143.392 -58.9358C400.456 -163.942 632.592 -300.432 697.313 -141.99Z" fill="#EEF3FF"/>
<path d="M1070.81 512.688H1099.37" stroke="#263238" stroke-width="2" stroke-miterlimit="10"/>
<path d="M1084.2 507.323L1079.73 520.718C1079.73 520.718 945.827 535.008 934.22 515.353C922.613 495.698 942.268 488.579 988.68 495.715C1035.09 502.852 1084.2 507.323 1084.2 507.323Z" fill="white" stroke="#263238" stroke-miterlimit="10"/>
<path d="M1186.28 512.688H1157.72" stroke="#263238" stroke-width="2" stroke-miterlimit="10"/>
<path d="M1172.88 507.323L1177.35 520.718C1177.35 520.718 1311.26 535.008 1322.85 515.353C1334.44 495.698 1314.91 488.579 1268.48 495.715C1222.05 502.852 1172.88 507.323 1172.88 507.323Z" fill="white" stroke="#263238" stroke-miterlimit="10"/>
<path d="M1111.99 538.929C1111.99 538.929 1106.95 567.767 1116.02 570.484C1125.08 573.201 1146.69 572.599 1152.71 564.551C1158.73 556.503 1154.69 548.456 1148.02 536.35C1141.35 524.244 1123.82 523.521 1111.99 538.929Z" fill="white" stroke="#263238" stroke-miterlimit="10"/>
<path d="M1124.44 427V517.4H1132.58V431.075" fill="white"/>
<path d="M1124.44 427V517.4H1132.58V431.075" stroke="#263238" stroke-miterlimit="10"/>
<path d="M1104.17 522.937C1120.45 528.095 1137.93 528.095 1154.21 522.937H1167.02V511.329C1167.02 502.731 1150.08 495.853 1129.19 495.853C1108.3 495.853 1091.36 502.731 1091.36 511.329V522.937H1104.17Z" fill="white" stroke="#263238" stroke-miterlimit="10"/>
<path d="M1129.19 538.413C1150.08 538.413 1167.02 531.484 1167.02 522.937C1167.02 514.389 1150.08 507.46 1129.19 507.46C1108.3 507.46 1091.36 514.389 1091.36 522.937C1091.36 531.484 1108.3 538.413 1129.19 538.413Z" fill="white" stroke="#263238" stroke-miterlimit="10"/>
<path d="M1129.19 538.413C1150.08 538.413 1167.02 531.484 1167.02 522.937C1167.02 514.389 1150.08 507.46 1129.19 507.46C1108.3 507.46 1091.36 514.389 1091.36 522.937C1091.36 531.484 1108.3 538.413 1129.19 538.413Z" fill="white" stroke="#263238" stroke-miterlimit="10"/>
<path d="M1263.63 830.935H1239.19V899.272H1263.63V830.935Z" fill="#A8A8A8"/>
<path d="M1257.52 836.541H1245.31V877.158H1257.52V836.541Z" fill="#8C8C8C"/>
<path d="M1251.42 893.322C1253.42 893.322 1255.05 891.698 1255.05 889.694C1255.05 887.69 1253.42 886.065 1251.42 886.065C1249.41 886.065 1247.79 887.69 1247.79 889.694C1247.79 891.698 1249.41 893.322 1251.42 893.322Z" fill="#8C8C8C"/>
<path d="M1298.52 830.935H1274.08V899.272H1298.52V830.935Z" fill="#8C8C8C"/>
<path d="M1292.4 836.541H1280.19V877.158H1292.4V836.541Z" fill="#A8A8A8"/>
<path d="M1286.31 893.322C1288.31 893.322 1289.94 891.698 1289.94 889.694C1289.94 887.69 1288.31 886.065 1286.31 886.065C1284.3 886.065 1282.68 887.69 1282.68 889.694C1282.68 891.698 1284.3 893.322 1286.31 893.322Z" fill="#A8A8A8"/>
<path d="M1333.41 830.935H1308.97V899.272H1333.41V830.935Z" fill="#8C8C8C"/>
<path d="M1327.29 836.541H1315.08V877.158H1327.29V836.541Z" fill="#A8A8A8"/>
<path d="M1324.83 889.642C1324.83 888.92 1324.61 888.215 1324.21 887.615C1323.81 887.015 1323.24 886.548 1322.57 886.272C1321.91 885.997 1321.17 885.926 1320.46 886.068C1319.76 886.21 1319.11 886.559 1318.6 887.07C1318.09 887.582 1317.74 888.233 1317.6 888.941C1317.47 889.65 1317.54 890.383 1317.82 891.049C1318.1 891.715 1318.57 892.283 1319.17 892.682C1319.77 893.08 1320.48 893.291 1321.2 893.288C1322.16 893.283 1323.09 892.897 1323.77 892.214C1324.45 891.531 1324.83 890.606 1324.83 889.642Z" fill="#A8A8A8"/>
<path d="M1368.3 830.935H1343.86V899.272H1368.3V830.935Z" fill="#A8A8A8"/>
<path d="M1362.18 836.541H1349.97V877.158H1362.18V836.541Z" fill="#8C8C8C"/>
<path d="M1359.72 889.642C1359.72 888.921 1359.5 888.216 1359.1 887.617C1358.7 887.017 1358.13 886.55 1357.47 886.274C1356.8 885.998 1356.07 885.926 1355.36 886.067C1354.65 886.207 1354.01 886.554 1353.5 887.064C1352.99 887.574 1352.64 888.224 1352.5 888.931C1352.36 889.638 1352.43 890.371 1352.7 891.037C1352.98 891.703 1353.45 892.273 1354.05 892.673C1354.65 893.074 1355.35 893.288 1356.07 893.288C1357.04 893.288 1357.97 892.903 1358.65 892.22C1359.33 891.536 1359.72 890.609 1359.72 889.642Z" fill="#8C8C8C"/>
<path d="M1408.02 656.791V651.838H1398.77V633.421H1391.51V651.838H1229.08V633.421H1221.82V651.838H1209.6V656.791H1221.82V734.035H1209.6V738.988H1221.82V816.249H1209.6V821.202H1221.82V898.446H1209.6V903.399H1221.82V987.969H1229.08V903.399H1391.51V987.969H1398.77V903.399H1408.02V898.446H1398.77V821.202H1408.02V816.249H1398.77V738.988H1408.02V734.035H1398.77V656.791H1408.02ZM1391.51 898.446H1229.08V821.202H1391.51V898.446ZM1391.51 816.249H1229.08V738.988H1391.51V816.249ZM1391.51 734.035H1229.08V656.791H1391.51V734.035Z" fill="#A8A8A8"/>
<path d="M1346.89 665.698H1322.46V734.035H1346.89V665.698Z" fill="#8C8C8C"/>
<path d="M1340.77 671.304H1328.56V711.921H1340.77V671.304Z" fill="#8C8C8C"/>
<path d="M1338.31 724.457C1338.31 723.735 1338.1 723.03 1337.69 722.43C1337.29 721.83 1336.72 721.363 1336.06 721.087C1335.39 720.812 1334.65 720.741 1333.95 720.883C1333.24 721.025 1332.59 721.374 1332.08 721.885C1331.57 722.397 1331.23 723.048 1331.09 723.756C1330.95 724.465 1331.02 725.198 1331.3 725.864C1331.58 726.53 1332.05 727.098 1332.65 727.497C1333.25 727.895 1333.96 728.106 1334.68 728.103C1335.65 728.098 1336.57 727.712 1337.25 727.029C1337.93 726.346 1338.31 725.421 1338.31 724.457Z" fill="#8C8C8C"/>
<path d="M1318.22 665.698H1293.79V734.035H1318.22V665.698Z" fill="#8C8C8C"/>
<path d="M1312.12 671.304H1299.91V711.921H1312.12V671.304Z" fill="#8C8C8C"/>
<path d="M1306.02 728.085C1308.02 728.085 1309.64 726.461 1309.64 724.457C1309.64 722.453 1308.02 720.829 1306.02 720.829C1304.01 720.829 1302.39 722.453 1302.39 724.457C1302.39 726.461 1304.01 728.085 1306.02 728.085Z" fill="#8C8C8C"/>
<path d="M1289.58 665.698H1265.14V734.035H1289.58V665.698Z" fill="#A8A8A8"/>
<path d="M1283.45 671.304H1271.25V711.921H1283.45V671.304Z" fill="#8C8C8C"/>
<path d="M1277.35 728.085C1279.35 728.085 1280.98 726.461 1280.98 724.457C1280.98 722.453 1279.35 720.829 1277.35 720.829C1275.35 720.829 1273.72 722.453 1273.72 724.457C1273.72 726.461 1275.35 728.085 1277.35 728.085Z" fill="#8C8C8C"/>
<path d="M1380.56 665.698H1356.12V734.035H1380.56V665.698Z" fill="#8C8C8C"/>
<path d="M1374.46 671.304H1362.25V711.921H1374.46V671.304Z" fill="#8C8C8C"/>
<path d="M1368.35 728.085C1370.35 728.085 1371.98 726.461 1371.98 724.457C1371.98 722.453 1370.35 720.829 1368.35 720.829C1366.35 720.829 1364.72 722.453 1364.72 724.457C1364.72 726.461 1366.35 728.085 1368.35 728.085Z" fill="#8C8C8C"/>
<path d="M1259.05 665.698H1234.62V734.035H1259.05V665.698Z" fill="#A8A8A8"/>
<path d="M1252.93 671.304H1240.72V711.921H1252.93V671.304Z" fill="#8C8C8C"/>
<path d="M1246.83 728.085C1248.83 728.085 1250.46 726.461 1250.46 724.457C1250.46 722.453 1248.83 720.829 1246.83 720.829C1244.82 720.829 1243.2 722.453 1243.2 724.457C1243.2 726.461 1244.82 728.085 1246.83 728.085Z" fill="#8C8C8C"/>
<path d="M1357.53 630.618H1284.09C1286.55 633.485 1287.85 637.162 1287.75 640.936C1287.85 644.709 1286.54 648.384 1284.09 651.253H1357.53C1360.27 651.253 1362.9 650.166 1364.83 648.232C1366.77 646.297 1367.85 643.672 1367.85 640.936C1367.85 638.199 1366.77 635.575 1364.83 633.64C1362.9 631.705 1360.27 630.618 1357.53 630.618Z" fill="#D4D4D4" stroke="white" stroke-miterlimit="10"/>
<path d="M1360.42 631.031V650.617C1362.54 649.984 1364.4 648.688 1365.72 646.921C1367.05 645.153 1367.77 643.007 1367.78 640.798C1367.76 638.598 1367.03 636.464 1365.71 634.707C1364.38 632.949 1362.53 631.662 1360.42 631.031Z" fill="#9C9C9C" stroke="white" stroke-miterlimit="10"/>
<path d="M1357.53 608.831H1284.09C1286.54 611.701 1287.85 615.375 1287.75 619.148C1287.85 622.922 1286.54 626.596 1284.09 629.466H1357.53C1360.27 629.466 1362.9 628.379 1364.83 626.444C1366.77 624.509 1367.85 621.885 1367.85 619.148C1367.85 616.412 1366.77 613.788 1364.83 611.853C1362.9 609.918 1360.27 608.831 1357.53 608.831Z" fill="#D4D4D4" stroke="white" stroke-miterlimit="10"/>
<path d="M1360.42 609.244V628.916C1362.54 628.282 1364.4 626.984 1365.73 625.213C1367.05 623.442 1367.77 621.292 1367.78 619.08C1367.77 616.868 1367.05 614.718 1365.73 612.947C1364.4 611.176 1362.54 609.878 1360.42 609.244Z" fill="#9C9C9C" stroke="white" stroke-miterlimit="10"/>
<path d="M1283.13 580.87H1258.69V649.207H1283.13V580.87Z" fill="#A8A8A8"/>
<path d="M1277.01 586.476H1264.8V627.093H1277.01V586.476Z" fill="#A8A8A8"/>
<path d="M1274.53 639.629C1274.53 638.911 1274.32 638.21 1273.92 637.613C1273.52 637.016 1272.95 636.551 1272.29 636.277C1271.63 636.002 1270.9 635.93 1270.19 636.07C1269.49 636.21 1268.84 636.556 1268.34 637.063C1267.83 637.571 1267.48 638.217 1267.34 638.921C1267.2 639.625 1267.27 640.354 1267.55 641.017C1267.82 641.68 1268.29 642.247 1268.89 642.646C1269.48 643.044 1270.18 643.257 1270.9 643.257C1271.38 643.26 1271.85 643.167 1272.29 642.986C1272.73 642.804 1273.13 642.537 1273.47 642.2C1273.81 641.862 1274.08 641.461 1274.26 641.02C1274.44 640.579 1274.53 640.106 1274.53 639.629Z" fill="#A8A8A8"/>
<path d="M1380.56 747.242H1356.12V815.579H1380.56V747.242Z" fill="#A8A8A8"/>
<path d="M1374.46 752.865H1362.25V793.482H1374.46V752.865Z" fill="#8C8C8C"/>
<path d="M1371.98 806.018C1371.98 805.3 1371.77 804.599 1371.37 804.002C1370.97 803.405 1370.4 802.94 1369.74 802.666C1369.08 802.391 1368.35 802.319 1367.64 802.459C1366.94 802.599 1366.29 802.945 1365.79 803.452C1365.28 803.96 1364.93 804.606 1364.79 805.31C1364.65 806.014 1364.72 806.743 1365 807.406C1365.27 808.069 1365.74 808.636 1366.34 809.035C1366.93 809.433 1367.63 809.646 1368.35 809.646C1369.31 809.642 1370.23 809.258 1370.91 808.578C1371.59 807.899 1371.97 806.979 1371.98 806.018Z" fill="#8C8C8C"/>
<path d="M1352.24 747.242H1327.8V815.579H1352.24V747.242Z" fill="#A8A8A8"/>
<path d="M1346.12 752.865H1333.91V793.482H1346.12V752.865Z" fill="#8C8C8C"/>
<path d="M1343.64 806.018C1343.64 805.3 1343.43 804.599 1343.03 804.002C1342.63 803.405 1342.06 802.94 1341.4 802.666C1340.74 802.391 1340.01 802.319 1339.3 802.459C1338.6 802.599 1337.95 802.945 1337.45 803.452C1336.94 803.96 1336.59 804.606 1336.45 805.31C1336.31 806.014 1336.39 806.743 1336.66 807.406C1336.93 808.069 1337.4 808.636 1338 809.035C1338.59 809.433 1339.29 809.646 1340.01 809.646C1340.49 809.646 1340.96 809.552 1341.4 809.37C1341.84 809.188 1342.24 808.92 1342.58 808.583C1342.91 808.247 1343.18 807.847 1343.36 807.406C1343.55 806.966 1343.64 806.494 1343.64 806.018Z" fill="#8C8C8C"/>
<path d="M1293.77 747.242H1269.34V815.579H1293.77V747.242Z" fill="#A8A8A8"/>
<path d="M1287.65 752.865H1275.44V793.482H1287.65V752.865Z" fill="#8C8C8C"/>
<path d="M1285.17 806.018C1285.17 805.3 1284.96 804.599 1284.56 804.002C1284.16 803.405 1283.6 802.94 1282.93 802.666C1282.27 802.391 1281.54 802.319 1280.84 802.459C1280.13 802.599 1279.49 802.945 1278.98 803.452C1278.47 803.96 1278.13 804.606 1277.99 805.31C1277.85 806.014 1277.92 806.743 1278.19 807.406C1278.47 808.069 1278.93 808.636 1279.53 809.035C1280.13 809.433 1280.83 809.646 1281.55 809.646C1282.02 809.646 1282.49 809.552 1282.93 809.37C1283.37 809.188 1283.77 808.92 1284.11 808.583C1284.45 808.247 1284.72 807.847 1284.9 807.406C1285.08 806.966 1285.17 806.494 1285.17 806.018Z" fill="#8C8C8C"/>
<path d="M1323.9 747.242H1299.46V815.579H1323.9V747.242Z" fill="#A8A8A8"/>
<path d="M1317.78 752.865H1305.57V793.482H1317.78V752.865Z" fill="#8C8C8C"/>
<path d="M1315.3 806.018C1315.3 805.3 1315.09 804.599 1314.69 804.002C1314.29 803.405 1313.72 802.94 1313.06 802.666C1312.4 802.391 1311.67 802.319 1310.97 802.459C1310.26 802.599 1309.61 802.945 1309.11 803.452C1308.6 803.96 1308.25 804.606 1308.11 805.31C1307.97 806.014 1308.05 806.743 1308.32 807.406C1308.6 808.069 1309.06 808.636 1309.66 809.035C1310.25 809.433 1310.96 809.646 1311.67 809.646C1312.15 809.646 1312.62 809.552 1313.06 809.37C1313.5 809.188 1313.9 808.92 1314.24 808.583C1314.58 808.247 1314.84 807.847 1315.03 807.406C1315.21 806.966 1315.3 806.494 1315.3 806.018Z" fill="#8C8C8C"/>
<path d="M1067.04 830.935H1042.61V899.272H1067.04V830.935Z" fill="#A8A8A8"/>
<path d="M1060.92 836.541H1048.71V877.158H1060.92V836.541Z" fill="#A8A8A8"/>
<path d="M1054.82 893.322C1056.82 893.322 1058.44 891.698 1058.44 889.694C1058.44 887.69 1056.82 886.065 1054.82 886.065C1052.81 886.065 1051.19 887.69 1051.19 889.694C1051.19 891.698 1052.81 893.322 1054.82 893.322Z" fill="#A8A8A8"/>
<path d="M1101.92 830.935H1077.48V899.272H1101.92V830.935Z" fill="#A8A8A8"/>
<path d="M1095.81 836.541H1083.6V877.158H1095.81V836.541Z" fill="#A8A8A8"/>
<path d="M1089.71 893.322C1091.71 893.322 1093.33 891.698 1093.33 889.694C1093.33 887.69 1091.71 886.065 1089.71 886.065C1087.7 886.065 1086.08 887.69 1086.08 889.694C1086.08 891.698 1087.7 893.322 1089.71 893.322Z" fill="#A8A8A8"/>
<path d="M1136.81 830.935H1112.37V899.272H1136.81V830.935Z" fill="#A8A8A8"/>
<path d="M1130.7 836.541H1118.49V877.158H1130.7V836.541Z" fill="#A8A8A8"/>
<path d="M1124.6 893.322C1126.6 893.322 1128.23 891.698 1128.23 889.694C1128.23 887.69 1126.6 886.065 1124.6 886.065C1122.59 886.065 1120.97 887.69 1120.97 889.694C1120.97 891.698 1122.59 893.322 1124.6 893.322Z" fill="#A8A8A8"/>
<path d="M1171.7 830.935H1147.26V899.272H1171.7V830.935Z" fill="#A8A8A8"/>
<path d="M1165.58 836.541H1153.37V877.158H1165.58V836.541Z" fill="#A8A8A8"/>
<path d="M1163.12 889.642C1163.12 888.92 1162.9 888.215 1162.5 887.615C1162.1 887.015 1161.53 886.548 1160.86 886.272C1160.19 885.997 1159.46 885.926 1158.75 886.068C1158.05 886.21 1157.4 886.559 1156.89 887.07C1156.38 887.582 1156.03 888.233 1155.89 888.941C1155.75 889.65 1155.83 890.383 1156.11 891.049C1156.39 891.715 1156.86 892.283 1157.46 892.682C1158.06 893.08 1158.77 893.291 1159.49 893.288C1160.45 893.283 1161.37 892.897 1162.05 892.214C1162.73 891.531 1163.12 890.606 1163.12 889.642Z" fill="#A8A8A8"/>
<path d="M1032.48 633.421H1025.22V987.969H1032.48V633.421Z" fill="#A8A8A8"/>
<path d="M1202.17 633.421H1194.91V987.969H1202.17V633.421Z" fill="#A8A8A8"/>
<path d="M1211.42 651.838H1013V656.791H1211.42V651.838Z" fill="#A8A8A8"/>
<path d="M1211.42 734.035H1013V738.988H1211.42V734.035Z" fill="#A8A8A8"/>
<path d="M1211.42 816.249H1013V821.202H1211.42V816.249Z" fill="#A8A8A8"/>
<path d="M1211.42 898.446H1013V903.399H1211.42V898.446Z" fill="#A8A8A8"/>
<path d="M1150.29 665.698H1125.85V734.035H1150.29V665.698Z" fill="#A8A8A8"/>
<path d="M1144.17 671.304H1131.96V711.921H1144.17V671.304Z" fill="#A8A8A8"/>
<path d="M1141.71 724.457C1141.71 723.735 1141.49 723.03 1141.09 722.43C1140.69 721.83 1140.12 721.363 1139.45 721.087C1138.79 720.812 1138.05 720.741 1137.34 720.883C1136.64 721.025 1135.99 721.374 1135.48 721.885C1134.97 722.397 1134.62 723.048 1134.48 723.756C1134.35 724.465 1134.42 725.198 1134.7 725.864C1134.98 726.53 1135.45 727.098 1136.05 727.497C1136.65 727.895 1137.36 728.106 1138.08 728.103C1139.04 728.098 1139.97 727.712 1140.65 727.029C1141.33 726.346 1141.71 725.421 1141.71 724.457Z" fill="#A8A8A8"/>
<path d="M1121.64 665.698H1097.2V734.035H1121.64V665.698Z" fill="#A8A8A8"/>
<path d="M1115.52 671.304H1103.31V711.921H1115.52V671.304Z" fill="#8C8C8C"/>
<path d="M1109.41 728.085C1111.42 728.085 1113.04 726.461 1113.04 724.457C1113.04 722.453 1111.42 720.829 1109.41 720.829C1107.41 720.829 1105.78 722.453 1105.78 724.457C1105.78 726.461 1107.41 728.085 1109.41 728.085Z" fill="#8C8C8C"/>
<path d="M1092.97 665.698H1068.54V734.035H1092.97V665.698Z" fill="#A8A8A8"/>
<path d="M1086.85 671.304H1074.64V711.921H1086.85V671.304Z" fill="#8C8C8C"/>
<path d="M1080.75 728.085C1082.75 728.085 1084.38 726.461 1084.38 724.457C1084.38 722.453 1082.75 720.829 1080.75 720.829C1078.74 720.829 1077.12 722.453 1077.12 724.457C1077.12 726.461 1078.74 728.085 1080.75 728.085Z" fill="#8C8C8C"/>
<path d="M1183.98 665.698H1159.54V734.035H1183.98V665.698Z" fill="#A8A8A8"/>
<path d="M1177.85 671.304H1165.64V711.921H1177.85V671.304Z" fill="#8C8C8C"/>
<path d="M1171.75 728.085C1173.75 728.085 1175.38 726.461 1175.38 724.457C1175.38 722.453 1173.75 720.829 1171.75 720.829C1169.75 720.829 1168.12 722.453 1168.12 724.457C1168.12 726.461 1169.75 728.085 1171.75 728.085Z" fill="#A8A8A8"/>
<path d="M1062.45 665.698H1038.02V734.035H1062.45V665.698Z" fill="#A8A8A8"/>
<path d="M1056.33 671.304H1044.12V711.921H1056.33V671.304Z" fill="#8C8C8C"/>
<path d="M1050.22 728.085C1052.23 728.085 1053.85 726.461 1053.85 724.457C1053.85 722.453 1052.23 720.829 1050.22 720.829C1048.22 720.829 1046.6 722.453 1046.6 724.457C1046.6 726.461 1048.22 728.085 1050.22 728.085Z" fill="#8C8C8C"/>
<path d="M1062.45 583.157H1038.02V651.494H1062.45V583.157Z" fill="#A8A8A8"/>
<path d="M1056.33 588.763H1044.12V629.38H1056.33V588.763Z" fill="#8C8C8C"/>
<path d="M1050.22 645.544C1052.23 645.544 1053.85 643.92 1053.85 641.916C1053.85 639.912 1052.23 638.288 1050.22 638.288C1048.22 638.288 1046.6 639.912 1046.6 641.916C1046.6 643.92 1048.22 645.544 1050.22 645.544Z" fill="#8C8C8C"/>
<path d="M1089.29 583.157H1064.86V651.494H1089.29V583.157Z" fill="#A8A8A8"/>
<path d="M1083.19 588.763H1070.98V629.38H1083.19V588.763Z" fill="#8C8C8C"/>
<path d="M1077.08 645.544C1079.09 645.544 1080.71 643.92 1080.71 641.916C1080.71 639.912 1079.09 638.288 1077.08 638.288C1075.08 638.288 1073.46 639.912 1073.46 641.916C1073.46 643.92 1075.08 645.544 1077.08 645.544Z" fill="#8C8C8C"/>
<path d="M1158.63 652.853V628.417H1090.29V652.853H1158.63Z" fill="#A8A8A8"/>
<path d="M1153.02 646.731V634.522H1112.42V646.731H1153.02Z" fill="#8C8C8C"/>
<path d="M1099.96 644.255C1100.67 644.255 1101.37 644.042 1101.97 643.643C1102.57 643.244 1103.03 642.678 1103.31 642.015C1103.58 641.352 1103.65 640.622 1103.51 639.918C1103.37 639.215 1103.03 638.568 1102.52 638.061C1102.01 637.553 1101.37 637.208 1100.66 637.068C1099.96 636.928 1099.23 637 1098.57 637.274C1097.9 637.549 1097.34 638.014 1096.94 638.611C1096.54 639.207 1096.33 639.909 1096.33 640.626C1096.33 641.587 1096.72 642.507 1097.39 643.187C1098.07 643.866 1098.99 644.25 1099.96 644.255Z" fill="#8C8C8C"/>
<path d="M1183.98 747.242H1159.54V815.579H1183.98V747.242Z" fill="#A8A8A8"/>
<path d="M1177.85 752.865H1165.64V793.482H1177.85V752.865Z" fill="#A8A8A8"/>
<path d="M1175.38 806.018C1175.38 805.3 1175.16 804.599 1174.77 804.002C1174.37 803.405 1173.8 802.94 1173.14 802.666C1172.47 802.391 1171.74 802.319 1171.04 802.459C1170.34 802.599 1169.69 802.945 1169.18 803.452C1168.68 803.96 1168.33 804.606 1168.19 805.31C1168.05 806.014 1168.12 806.743 1168.4 807.406C1168.67 808.069 1169.14 808.636 1169.73 809.035C1170.33 809.433 1171.03 809.646 1171.75 809.646C1172.23 809.646 1172.7 809.552 1173.14 809.37C1173.58 809.188 1173.98 808.92 1174.31 808.583C1174.65 808.247 1174.92 807.847 1175.1 807.406C1175.28 806.966 1175.38 806.494 1175.38 806.018Z" fill="#A8A8A8"/>
<path d="M1155.64 747.242H1131.2V815.579H1155.64V747.242Z" fill="#A8A8A8"/>
<path d="M1149.51 752.865H1137.31V793.482H1149.51V752.865Z" fill="#A8A8A8"/>
<path d="M1147.04 806.018C1147.04 805.3 1146.83 804.599 1146.43 804.002C1146.03 803.405 1145.46 802.94 1144.8 802.666C1144.14 802.391 1143.41 802.319 1142.7 802.459C1142 802.599 1141.35 802.945 1140.84 803.452C1140.34 803.96 1139.99 804.606 1139.85 805.31C1139.71 806.014 1139.78 806.743 1140.06 807.406C1140.33 808.069 1140.8 808.636 1141.39 809.035C1141.99 809.433 1142.69 809.646 1143.41 809.646C1143.89 809.646 1144.36 809.552 1144.8 809.37C1145.24 809.188 1145.64 808.92 1145.98 808.583C1146.31 808.247 1146.58 807.847 1146.76 807.406C1146.94 806.966 1147.04 806.494 1147.04 806.018Z" fill="#A8A8A8"/>
<path d="M1097.17 747.242H1072.73V815.579H1097.17V747.242Z" fill="#A8A8A8"/>
<path d="M1091.05 752.865H1078.84V793.482H1091.05V752.865Z" fill="#A8A8A8"/>
<path d="M1088.57 806.018C1088.57 805.3 1088.36 804.599 1087.96 804.002C1087.56 803.405 1086.99 802.94 1086.33 802.666C1085.67 802.391 1084.94 802.319 1084.24 802.459C1083.53 802.599 1082.89 802.945 1082.38 803.452C1081.87 803.96 1081.52 804.606 1081.38 805.31C1081.24 806.014 1081.32 806.743 1081.59 807.406C1081.87 808.069 1082.33 808.636 1082.93 809.035C1083.52 809.433 1084.23 809.646 1084.94 809.646C1085.42 809.646 1085.89 809.552 1086.33 809.37C1086.77 809.188 1087.17 808.92 1087.51 808.583C1087.85 808.247 1088.11 807.847 1088.3 807.406C1088.48 806.966 1088.57 806.494 1088.57 806.018Z" fill="#A8A8A8"/>
<path d="M1127.3 747.242H1102.86V815.579H1127.3V747.242Z" fill="#A8A8A8"/>
<path d="M1121.18 752.865H1108.97V793.482H1121.18V752.865Z" fill="#A8A8A8"/>
<path d="M1118.7 806.018C1118.7 805.3 1118.49 804.599 1118.09 804.002C1117.69 803.405 1117.12 802.94 1116.46 802.666C1115.8 802.391 1115.07 802.319 1114.36 802.459C1113.66 802.599 1113.01 802.945 1112.51 803.452C1112 803.96 1111.65 804.606 1111.51 805.31C1111.37 806.014 1111.44 806.743 1111.72 807.406C1111.99 808.069 1112.46 808.636 1113.05 809.035C1113.65 809.433 1114.35 809.646 1115.07 809.646C1115.55 809.646 1116.02 809.552 1116.46 809.37C1116.9 809.188 1117.3 808.92 1117.64 808.583C1117.97 808.247 1118.24 807.847 1118.42 807.406C1118.61 806.966 1118.7 806.494 1118.7 806.018Z" fill="#A8A8A8"/>
<path d="M869.03 830.935H844.594V899.272H869.03V830.935Z" fill="#A8A8A8"/>
<path d="M862.908 836.541H850.699V877.158H862.908V836.541Z" fill="#8C8C8C"/>
<path d="M856.821 893.322C858.825 893.322 860.449 891.698 860.449 889.694C860.449 887.69 858.825 886.065 856.821 886.065C854.817 886.065 853.192 887.69 853.192 889.694C853.192 891.698 854.817 893.322 856.821 893.322Z" fill="#8C8C8C"/>
<path d="M903.921 830.935H879.485V899.272H903.921V830.935Z" fill="#A8A8A8"/>
<path d="M897.799 836.541H885.59V877.158H897.799V836.541Z" fill="#8C8C8C"/>
<path d="M891.711 893.322C893.715 893.322 895.34 891.698 895.34 889.694C895.34 887.69 893.715 886.065 891.711 886.065C889.708 886.065 888.083 887.69 888.083 889.694C888.083 891.698 889.708 893.322 891.711 893.322Z" fill="#8C8C8C"/>
<path d="M938.811 830.935H914.376V899.272H938.811V830.935Z" fill="#8C8C8C"/>
<path d="M932.69 836.541H920.48V877.158H932.69V836.541Z" fill="#A8A8A8"/>
<path d="M926.585 893.322C928.589 893.322 930.213 891.698 930.213 889.694C930.213 887.69 928.589 886.065 926.585 886.065C924.581 886.065 922.957 887.69 922.957 889.694C922.957 891.698 924.581 893.322 926.585 893.322Z" fill="#A8A8A8"/>
<path d="M973.702 830.935H949.267V899.272H973.702V830.935Z" fill="#A8A8A8"/>
<path d="M967.58 836.541H955.371V877.158H967.58V836.541Z" fill="#8C8C8C"/>
<path d="M961.476 893.322C963.48 893.322 965.104 891.698 965.104 889.694C965.104 887.69 963.48 886.065 961.476 886.065C959.472 886.065 957.847 887.69 957.847 889.694C957.847 891.698 959.472 893.322 961.476 893.322Z" fill="#8C8C8C"/>
<path d="M834.466 633.421H827.209V987.969H834.466V633.421Z" fill="#A8A8A8"/>
<path d="M1004.17 633.421H996.917V987.969H1004.17V633.421Z" fill="#A8A8A8"/>
<path d="M1013.43 651.838H815V656.791H1013.43V651.838Z" fill="#A8A8A8"/>
<path d="M1013.43 734.035H815V738.988H1013.43V734.035Z" fill="#A8A8A8"/>
<path d="M1013.43 816.249H815V821.202H1013.43V816.249Z" fill="#A8A8A8"/>
<path d="M1013.43 898.446H815V903.399H1013.43V898.446Z" fill="#A8A8A8"/>
<path d="M952.293 665.698H927.858V734.035H952.293V665.698Z" fill="#8C8C8C"/>
<path d="M946.171 671.304H933.962V711.921H946.171V671.304Z" fill="#A8A8A8"/>
<path d="M943.712 724.457C943.712 723.736 943.498 723.031 943.098 722.432C942.697 721.832 942.128 721.365 941.462 721.089C940.796 720.813 940.063 720.741 939.356 720.881C938.648 721.022 937.999 721.369 937.489 721.879C936.979 722.389 936.632 723.039 936.491 723.746C936.351 724.453 936.423 725.186 936.699 725.852C936.975 726.518 937.442 727.088 938.041 727.488C938.641 727.889 939.346 728.103 940.067 728.103C941.034 728.103 941.961 727.718 942.645 727.035C943.328 726.351 943.712 725.424 943.712 724.457Z" fill="#A8A8A8"/>
<path d="M923.627 665.698H899.192V734.035H923.627V665.698Z" fill="#A8A8A8"/>
<path d="M917.506 671.304H905.296V711.921H917.506V671.304Z" fill="#8C8C8C"/>
<path d="M911.418 728.085C913.422 728.085 915.047 726.461 915.047 724.457C915.047 722.453 913.422 720.829 911.418 720.829C909.414 720.829 907.79 722.453 907.79 724.457C907.79 726.461 909.414 728.085 911.418 728.085Z" fill="#8C8C8C"/>
<path d="M894.979 665.698H870.543V734.035H894.979V665.698Z" fill="#A8A8A8"/>
<path d="M888.857 671.304H876.648V711.921H888.857V671.304Z" fill="#8C8C8C"/>
<path d="M882.752 728.085C884.756 728.085 886.381 726.461 886.381 724.457C886.381 722.453 884.756 720.829 882.752 720.829C880.748 720.829 879.124 722.453 879.124 724.457C879.124 726.461 880.748 728.085 882.752 728.085Z" fill="#8C8C8C"/>
<path d="M985.963 665.698H961.527V734.035H985.963V665.698Z" fill="#A8A8A8"/>
<path d="M979.841 671.304H967.632V711.921H979.841V671.304Z" fill="#8C8C8C"/>
<path d="M973.754 728.085C975.758 728.085 977.382 726.461 977.382 724.457C977.382 722.453 975.758 720.829 973.754 720.829C971.75 720.829 970.125 722.453 970.125 724.457C970.125 726.461 971.75 728.085 973.754 728.085Z" fill="#8C8C8C"/>
<path d="M916.697 627.953V652.388H985.034V627.953H916.697Z" fill="#A8A8A8"/>
<path d="M922.32 634.057V646.267H962.937V634.057H922.32Z" fill="#8C8C8C"/>
<path d="M975.473 636.534C974.752 636.53 974.045 636.741 973.443 637.14C972.842 637.538 972.372 638.106 972.093 638.772C971.814 639.438 971.74 640.172 971.879 640.88C972.017 641.588 972.363 642.239 972.872 642.751C973.381 643.262 974.031 643.611 974.739 643.753C975.446 643.895 976.18 643.824 976.847 643.549C977.514 643.273 978.085 642.806 978.486 642.206C978.887 641.606 979.102 640.901 979.102 640.179C979.102 639.215 978.72 638.291 978.04 637.608C977.36 636.924 976.437 636.538 975.473 636.534Z" fill="#8C8C8C"/>
<path d="M914.152 603.947V628.383H982.489V603.947H914.152Z" fill="#A8A8A8"/>
<path d="M919.758 610.052V622.261H960.375V610.052H919.758Z" fill="#8C8C8C"/>
<path d="M972.911 612.528C972.194 612.528 971.492 612.741 970.895 613.139C970.299 613.538 969.834 614.105 969.559 614.768C969.284 615.431 969.213 616.16 969.353 616.864C969.493 617.568 969.838 618.215 970.346 618.722C970.853 619.229 971.5 619.575 972.203 619.715C972.907 619.855 973.637 619.783 974.3 619.509C974.963 619.234 975.529 618.769 975.928 618.172C976.327 617.575 976.54 616.874 976.54 616.156C976.542 615.679 976.45 615.206 976.268 614.765C976.086 614.324 975.819 613.923 975.482 613.586C975.145 613.248 974.744 612.981 974.302 612.8C973.861 612.618 973.388 612.526 972.911 612.528Z" fill="#8C8C8C"/>
<path d="M864.456 665.698H840.02V734.035H864.456V665.698Z" fill="#A8A8A8"/>
<path d="M858.334 671.304H846.125V711.921H858.334V671.304Z" fill="#8C8C8C"/>
<path d="M852.229 728.085C854.233 728.085 855.858 726.461 855.858 724.457C855.858 722.453 854.233 720.829 852.229 720.829C850.226 720.829 848.601 722.453 848.601 724.457C848.601 726.461 850.226 728.085 852.229 728.085Z" fill="#8C8C8C"/>
<path d="M985.963 747.242H961.527V815.579H985.963V747.242Z" fill="#A8A8A8"/>
<path d="M979.841 752.865H967.632V793.482H979.841V752.865Z" fill="#8C8C8C"/>
<path d="M977.382 806.018C977.386 805.295 977.174 804.588 976.775 803.986C976.376 803.384 975.806 802.914 975.14 802.636C974.473 802.358 973.738 802.284 973.03 802.424C972.321 802.564 971.67 802.912 971.159 803.423C970.648 803.934 970.3 804.585 970.16 805.294C970.02 806.002 970.094 806.737 970.372 807.404C970.65 808.07 971.12 808.64 971.722 809.039C972.324 809.438 973.031 809.65 973.754 809.646C974.715 809.642 975.635 809.258 976.314 808.578C976.994 807.899 977.378 806.979 977.382 806.018Z" fill="#8C8C8C"/>
<path d="M957.624 747.242H933.188V815.579H957.624V747.242Z" fill="#8C8C8C"/>
<path d="M951.519 752.865H939.31V793.482H951.519V752.865Z" fill="#A8A8A8"/>
<path d="M949.043 806.018C949.043 805.3 948.83 804.599 948.432 804.002C948.033 803.405 947.466 802.94 946.803 802.666C946.14 802.391 945.411 802.319 944.707 802.459C944.003 802.599 943.357 802.945 942.849 803.452C942.342 803.96 941.996 804.606 941.856 805.31C941.716 806.014 941.788 806.743 942.063 807.406C942.337 808.069 942.802 808.636 943.399 809.035C943.996 809.433 944.697 809.646 945.415 809.646C946.376 809.642 947.296 809.258 947.975 808.578C948.655 807.899 949.039 806.979 949.043 806.018Z" fill="#A8A8A8"/>
<path d="M870.251 747.242H845.815V815.579H870.251V747.242Z" fill="#8C8C8C"/>
<path d="M864.146 752.865H851.937V793.482H864.146V752.865Z" fill="#A8A8A8"/>
<path d="M861.67 806.018C861.67 805.3 861.457 804.599 861.059 804.002C860.66 803.405 860.093 802.94 859.43 802.666C858.767 802.391 858.038 802.319 857.334 802.459C856.63 802.599 855.983 802.945 855.476 803.452C854.969 803.96 854.623 804.606 854.483 805.31C854.343 806.014 854.415 806.743 854.69 807.406C854.964 808.069 855.429 808.636 856.026 809.035C856.623 809.433 857.324 809.646 858.042 809.646C859.003 809.642 859.923 809.258 860.602 808.578C861.282 807.899 861.666 806.979 861.67 806.018Z" fill="#A8A8A8"/>
<path d="M899.157 747.242H874.722V815.579H899.157V747.242Z" fill="#8C8C8C"/>
<path d="M893.053 752.865H880.844V793.482H893.053V752.865Z" fill="#A8A8A8"/>
<path d="M890.577 806.018C890.577 805.3 890.364 804.599 889.965 804.002C889.566 803.405 889 802.94 888.337 802.666C887.674 802.391 886.944 802.319 886.24 802.459C885.537 802.599 884.89 802.945 884.383 803.452C883.875 803.96 883.53 804.606 883.39 805.31C883.25 806.014 883.321 806.743 883.596 807.406C883.871 808.069 884.336 808.636 884.932 809.035C885.529 809.433 886.231 809.646 886.948 809.646C887.909 809.642 888.829 809.258 889.509 808.578C890.188 807.899 890.572 806.979 890.577 806.018Z" fill="#A8A8A8"/>
<path d="M929.285 747.242H904.849V815.579H929.285V747.242Z" fill="#8C8C8C"/>
<path d="M923.18 752.865H910.971V793.482H923.18V752.865Z" fill="#A8A8A8"/>
<path d="M920.704 806.018C920.704 805.3 920.491 804.599 920.093 804.002C919.694 803.405 919.127 802.94 918.464 802.666C917.801 802.391 917.072 802.319 916.368 802.459C915.664 802.599 915.017 802.945 914.51 803.452C914.003 803.96 913.657 804.606 913.517 805.31C913.377 806.014 913.449 806.743 913.723 807.406C913.998 808.069 914.463 808.636 915.06 809.035C915.656 809.433 916.358 809.646 917.076 809.646C918.037 809.642 918.957 809.258 919.636 808.578C920.316 807.899 920.699 806.979 920.704 806.018Z" fill="#A8A8A8"/>
<path d="M910.696 988.657H874.051L868.548 927.903H916.199L910.696 988.657Z" fill="#F5C67F" stroke="#263238" stroke-linecap="round" stroke-linejoin="round"/>
<path d="M916.113 925.702H868.617C867.231 925.702 866.107 926.826 866.107 928.213V928.454C866.107 929.84 867.231 930.964 868.617 930.964H916.113C917.499 930.964 918.623 929.84 918.623 928.454V928.213C918.623 926.826 917.499 925.702 916.113 925.702Z" fill="white" stroke="#263238" stroke-linecap="round" stroke-linejoin="round"/>
<path d="M870.87 840.891C871.601 839.247 872.701 837.793 874.086 836.644" stroke="#263238" stroke-linecap="round" stroke-linejoin="round"/>
<path d="M883.561 922.418C883.561 922.418 894.394 920.612 902.063 907.973C909.733 895.334 898.917 889.057 881.308 874.114C870.354 864.845 867.964 854.339 869.133 846.6" stroke="#263238" stroke-linecap="round" stroke-linejoin="round"/>
<path d="M906.62 920.354C910.636 917.853 913.531 913.898 914.703 909.314C916.972 900.716 913.808 890.811 901.169 882.695C888.53 874.578 881.755 872.377 875.891 864.639" stroke="#263238" stroke-linecap="round" stroke-linejoin="round"/>
<path d="M897.558 923.759C899.553 923.449 901.496 922.871 903.336 922.039" stroke="#263238" stroke-linecap="round" stroke-linejoin="round"/>
<path d="M1056 826.12C1047.82 816.989 1044.48 806.826 1046.96 792.88C1051.26 768.806 1077.67 742.031 1077.67 725.196C1077.67 708.361 1089.45 669.154 1125.44 666.833C1161.43 664.512 1179.69 682.602 1187.35 722.221C1195 761.841 1194.62 768.771 1203.53 787.257C1207.19 794.875 1211.33 802.561 1212.85 810.97C1215.86 827.65 1197.75 835.801 1184.94 840.393C1148.96 853.255 1103.94 861.75 1070.07 838.449C1064.9 834.916 1060.18 830.777 1056 826.12Z" fill="#263238" stroke="#263238" stroke-linecap="round" stroke-linejoin="round"/>
<path d="M1186.35 752.848C1188.31 753.755 1190.36 754.452 1192.47 754.928" stroke="white" stroke-miterlimit="10" stroke-linecap="round"/>
<path d="M1137 698.164C1137 698.164 1151.18 731.696 1167.95 742.668C1171.71 745.127 1175.02 747.087 1177.87 748.669" stroke="white" stroke-miterlimit="10" stroke-linecap="round"/>
<path d="M1115.11 708.499C1106.95 722.583 1091.43 744.903 1070.55 754.275" stroke="white" stroke-miterlimit="10" stroke-linecap="round"/>
<path d="M1121.5 696.221C1121.5 696.221 1120.5 698.491 1118.6 702.154" stroke="white" stroke-miterlimit="10" stroke-linecap="round"/>
<path d="M1083.45 754.928C1083.45 754.928 1056.97 781.307 1060.23 812.26" stroke="white" stroke-miterlimit="10" stroke-linecap="round"/>
<path d="M1090.55 760.672C1090.55 760.672 1078.29 794.221 1082.16 815.51" stroke="white" stroke-miterlimit="10" stroke-linecap="round"/>
<path d="M1102.1 794.204C1102.1 794.204 1041.02 810.695 1036.4 812.346C1031.77 813.997 1032.44 824.572 1032.44 826.877C1032.44 829.181 1018.91 898.515 1018.91 898.515C1014.58 901.246 1010.49 904.341 1006.68 907.767C1001.41 912.719 1003.38 919.322 1003.38 920.973C1003.38 922.624 1003.71 923.277 1002.06 924.928C1000.41 926.579 996.779 923.621 997.45 933.853C998.121 944.085 994.475 968.245 1003.71 969.5C1012.94 970.756 1017.59 969.844 1031.12 965.219C1039.09 962.564 1045.79 957.05 1049.93 949.742V988.708H1215.67C1215.67 988.708 1232.5 939.511 1233.5 907.165C1234.5 874.819 1238.78 827.255 1232.85 818.347C1226.91 809.44 1195.53 799.535 1167.79 796.233C1140.06 792.932 1107.06 792.88 1102.1 794.204Z" fill="#F5C67F"/>
<g style="mix-blend-mode:multiply" opacity="0.24">
<path d="M1226.54 812.948C1227.4 813.962 1227.76 814.822 1227.02 815.166C1224.75 816.249 1214.09 819.689 1212.8 824.211C1211.51 828.734 1212.04 810.454 1209.56 815.802C1207.09 821.15 1203.73 842.319 1190.17 884.999C1179.32 919.064 1173.43 962.605 1177.1 988.657H1215.67C1215.67 988.657 1232.5 939.459 1233.5 907.113C1234.5 874.767 1238.78 827.203 1232.85 818.296C1231.13 816.103 1228.98 814.283 1226.54 812.948Z" fill="black"/>
</g>
<path d="M1104.41 784.953C1102.1 786.511 1100.27 788.685 1099.13 791.229C1096.83 795.838 1077.34 831.829 1075.69 833.48C1074.04 835.131 1084.6 834.804 1088.9 832.826C1093.2 830.849 1101.11 830.849 1101.11 830.849L1108.71 836.781L1132.15 846.033C1132.15 846.033 1142.7 838.432 1147.98 834.15C1153.26 829.869 1155.58 828.201 1155.58 828.201C1160.17 829.752 1164.59 831.745 1168.79 834.15C1174.07 837.452 1172.09 839.103 1174.07 837.452C1176.05 835.801 1175.07 832.5 1172.35 827.874C1169.63 823.248 1161.47 797.832 1151.22 788.323C1140.97 778.814 1116.62 775.701 1104.41 784.953Z" fill="#F5C67F" stroke="#263238" stroke-linecap="round" stroke-linejoin="round"/>
<path d="M1152.28 867.167L1197.85 867.494L1196.86 880.373L1173.42 892.256L1152.28 880.7V867.167Z" fill="#F5C67F" stroke="#263238" stroke-linecap="round" stroke-linejoin="round"/>
<path d="M1049.93 863.195L1095.5 863.521L1094.5 876.401L1071.07 888.284L1049.93 876.728V863.195Z" fill="#F5C67F" stroke="#263238" stroke-linecap="round" stroke-linejoin="round"/>
<g style="mix-blend-mode:multiply" opacity="0.24">
<path d="M1050.48 961.951C1050.48 961.951 1047.9 864.312 1049.85 853.307C1051.79 842.301 1038.2 809.336 1038.84 826.808C1039.48 844.279 1044 870.606 1044.38 877.158C1044.76 883.709 1029.14 880.476 1030.43 888.885C1031.72 897.294 1040.75 897.277 1043.38 910.226C1046.01 923.174 1023.97 922.504 1023.97 929.623C1023.97 936.742 1031.74 946.423 1025.27 952.253C1018.81 958.082 1015.16 950.275 1015.16 950.275C1017.46 956.408 1017.91 963.083 1016.43 969.466C1021.44 968.436 1026.37 967.045 1031.17 965.305C1039.14 962.65 1045.84 957.136 1049.98 949.828V963.86L1050.48 961.951Z" fill="black"/>
</g>
<path d="M1102.1 794.204C1102.1 794.204 1041.02 810.695 1036.4 812.346C1031.77 813.997 1032.44 824.572 1032.44 826.877C1032.44 829.181 1018.91 898.515 1018.91 898.515C1014.58 901.246 1010.49 904.341 1006.68 907.767C1001.41 912.719 1003.38 919.322 1003.38 920.973C1003.38 922.624 1003.71 923.277 1002.06 924.928C1000.41 926.579 996.779 923.621 997.45 933.853C998.121 944.085 994.475 968.245 1003.71 969.5C1012.94 970.756 1017.59 969.844 1031.12 965.219C1039.09 962.564 1045.79 957.05 1049.93 949.742V988.708H1215.67C1215.67 988.708 1232.5 939.511 1233.5 907.165C1234.5 874.819 1238.78 827.255 1232.85 818.347C1226.91 809.44 1195.53 799.535 1167.79 796.233C1140.06 792.932 1107.06 792.88 1102.1 794.204Z" stroke="#263238" stroke-linecap="round" stroke-linejoin="round"/>
<path d="M1049.93 893.236V950.361C1049.93 950.361 1046.96 914.043 1039.05 904.792" stroke="#263238" stroke-linecap="round" stroke-linejoin="round"/>
<path d="M1005.38 924.034C1005.38 924.034 1022.88 930.311 1026.51 943.173C1030.14 956.036 1025.86 964.307 1025.86 964.307" stroke="#263238" stroke-linecap="round" stroke-linejoin="round"/>
<path d="M984.433 945.684C984.433 945.684 997.209 939.872 998.189 938.805C999.17 937.739 1010.42 938.272 1015.11 950.241C1019.8 962.209 1016.4 967.953 1014.06 969.242C1011.72 970.532 999.462 974.109 996.074 974.109C992.687 974.109 978.448 950.12 984.433 945.684Z" fill="#F5C67F" stroke="#263238" stroke-linecap="round" stroke-linejoin="round"/>
<path d="M1106.39 790.902C1106.39 790.902 1100.78 988.192 1103.09 988.192H1143.38C1143.38 988.192 1143.7 844.382 1146.33 830.849C1148.96 817.315 1155.26 793.207 1154.26 786.603C1153.26 780 1108.38 783.628 1108.38 783.628C1107.37 785.945 1106.7 788.394 1106.39 790.902Z" fill="white"/>
<path d="M1106.39 790.902C1106.39 790.902 1100.78 988.192 1103.09 988.192H1143.38C1143.38 988.192 1143.7 844.382 1146.33 830.849C1148.96 817.315 1155.26 793.207 1154.26 786.603C1153.26 780 1108.38 783.628 1108.38 783.628C1107.37 785.945 1106.7 788.394 1106.39 790.902Z" fill="#F5C67F"/>
<path opacity="0.7" d="M1106.39 790.902C1106.39 790.902 1100.78 988.192 1103.09 988.192H1143.38C1143.38 988.192 1143.7 844.382 1146.33 830.849C1148.96 817.315 1155.26 793.207 1154.26 786.603C1153.26 780 1108.38 783.628 1108.38 783.628C1107.37 785.945 1106.7 788.394 1106.39 790.902Z" fill="white"/>
<path d="M1106.39 790.902C1106.39 790.902 1100.78 988.192 1103.09 988.192H1143.38C1143.38 988.192 1143.7 844.382 1146.33 830.849C1148.96 817.315 1155.26 793.207 1154.26 786.603C1153.26 780 1108.38 783.628 1108.38 783.628C1107.37 785.945 1106.7 788.394 1106.39 790.902Z" stroke="#263238" stroke-linecap="round" stroke-linejoin="round"/>
<path d="M1146.09 832.482C1132.88 836.73 1118.74 837.248 1105.25 833.978C1103.74 892.961 1101.47 988.193 1103.09 988.193H1143.38C1143.38 988.193 1143.68 853.41 1146.09 832.482Z" fill="white"/>
<path d="M1143.46 968.142C1143.46 962.742 1143.46 956.638 1143.56 950.086H1102.76C1102.76 956.689 1102.6 962.777 1102.57 968.142H1143.46Z" fill="#263238"/>
<path d="M1103.39 915.694C1103.27 921.885 1103.15 927.92 1103.05 933.75H1143.74C1143.74 927.852 1143.84 921.799 1143.91 915.694H1103.39Z" fill="#263238"/>
<path d="M1104.1 881.302C1103.96 887.303 1103.82 893.339 1103.7 899.358H1144.06C1144.15 893.202 1144.24 887.131 1144.34 881.302H1104.1Z" fill="#263238"/>
<path d="M1104.93 846.91C1104.79 852.705 1104.63 858.758 1104.48 864.966H1144.67C1144.82 858.208 1145.01 852.086 1145.22 846.91H1104.93Z" fill="#263238"/>
<path d="M1146.09 832.482C1132.88 836.73 1118.74 837.248 1105.25 833.978C1103.74 892.961 1101.47 988.193 1103.09 988.193H1143.38C1143.38 988.193 1143.68 853.41 1146.09 832.482Z" stroke="#263238" stroke-linecap="round" stroke-linejoin="round"/>
<path d="M1125.54 705.644C1125.54 705.644 1119.59 724.457 1093.85 741.309C1093.85 741.309 1092.13 764.747 1099.13 782.236C1106.13 799.724 1124.55 813.601 1132.47 811.95C1140.4 810.3 1155.91 792.467 1161.19 779.931C1166.47 767.395 1166.49 744.937 1166.49 744.937C1166.49 744.937 1139.73 727.501 1125.54 705.644Z" fill="white" stroke="#263238" stroke-linecap="round" stroke-linejoin="round"/>
<path d="M1123.57 769.442C1123.57 769.442 1122.89 780.327 1124.55 781.324C1126.2 782.322 1129.17 781.978 1129.5 778.349" stroke="#263238" stroke-linecap="round" stroke-linejoin="round"/>
<path d="M1120.26 788.185C1120.26 788.185 1130.5 790.163 1136.1 786.861" stroke="#263238" stroke-linecap="round" stroke-linejoin="round"/>
<path d="M1120.06 736.855C1120.06 736.855 1106.2 733.158 1100.25 743.476" stroke="#263238" stroke-linecap="round" stroke-linejoin="round"/>
<path d="M1133.38 744.765C1133.38 744.765 1143 735.084 1156.55 743.82" stroke="#263238" stroke-linecap="round" stroke-linejoin="round"/>
<path d="M1104.08 757.542C1104.08 757.542 1110.36 763.492 1120.59 759.262" stroke="#263238" stroke-linecap="round" stroke-linejoin="round"/>
<path d="M1135.4 758.952C1135.4 758.952 1143.99 762.924 1151.23 758.299" stroke="#263238" stroke-linecap="round" stroke-linejoin="round"/>
<path d="M1110.57 774.05C1118.22 774.05 1124.43 767.845 1124.43 760.19C1124.43 752.536 1118.22 746.33 1110.57 746.33C1102.91 746.33 1096.71 752.536 1096.71 760.19C1096.71 767.845 1102.91 774.05 1110.57 774.05Z" stroke="#263238" stroke-width="0.75" stroke-linecap="round" stroke-linejoin="round"/>
<path d="M1143.65 774.05C1151.31 774.05 1157.51 767.845 1157.51 760.19C1157.51 752.536 1151.31 746.33 1143.65 746.33C1136 746.33 1129.79 752.536 1129.79 760.19C1129.79 767.845 1136 774.05 1143.65 774.05Z" stroke="#263238" stroke-width="0.75" stroke-linecap="round" stroke-linejoin="round"/>
<path d="M1124.43 760.19H1129.77" stroke="#263238" stroke-width="0.75" stroke-linecap="round" stroke-linejoin="round"/>
<path d="M1157.51 760.19H1165.63" stroke="#263238" stroke-width="0.75" stroke-linecap="round" stroke-linejoin="round"/>
<path d="M1092.99 760.19H1096.67" stroke="#263238" stroke-width="0.75" stroke-linecap="round" stroke-linejoin="round"/>
<path d="M1115.78 761.05C1115.78 761.05 1119.3 761.205 1116 762.426C1112.7 763.647 1109.36 763.045 1105.94 760.139C1105.94 760.139 1112.49 760.999 1115.78 761.05Z" fill="#263238" stroke="#263238" stroke-linecap="round" stroke-linejoin="round"/>
<path d="M1139.68 760.225C1139.68 760.225 1136.24 759.915 1139.28 761.549C1142.33 763.182 1145.78 763.045 1149.6 760.586C1149.55 760.672 1142.95 760.672 1139.68 760.225Z" fill="#263238" stroke="#263238" stroke-linecap="round" stroke-linejoin="round"/>
<path d="M1191.9 875.077L1186.62 820.6C1186.62 820.6 1175.39 818.296 1171.44 815.647C1167.48 812.999 1162.84 809.715 1162.84 809.715C1162.84 809.715 1160.21 812.019 1158.23 809.715C1156.26 807.411 1149.98 802.836 1148.98 799.139C1147.98 795.442 1154.93 790.541 1159.21 784.626C1163.49 778.71 1168.14 773.07 1171.44 773.397C1174.74 773.724 1188.93 788.185 1196.25 799.483C1203.58 810.781 1206.48 813.67 1206.81 817.642C1207.14 821.615 1213.69 841.717 1213.69 841.717L1215.41 875.73L1191.9 875.077Z" fill="white" stroke="#263238" stroke-linecap="round" stroke-linejoin="round"/>
<path d="M1162.84 809.715C1162.84 809.715 1156.34 803.301 1156.34 801.375" stroke="#263238" stroke-linecap="round" stroke-linejoin="round"/>
<path d="M1180.67 843.557L1186.95 878.551L1193.83 839.584L1220.57 836.627C1220.57 836.627 1220.33 878.224 1220.33 888.782C1220.33 899.341 1224.95 947.558 1226.28 964.445C1227.6 981.331 1218.68 986.8 1206.47 987.212C1194.26 987.625 1184.34 976.327 1180.38 953.542C1176.43 930.758 1181.03 889.161 1179.06 882.231C1177.08 875.301 1168.74 846.91 1168.74 846.91L1180.67 843.557Z" fill="#F5C67F"/>
<g style="mix-blend-mode:multiply" opacity="0.24">
<path d="M1210.66 986.8C1220.62 985.321 1227.4 979.216 1226.24 964.445C1224.92 947.61 1220.29 899.409 1220.29 888.782C1220.29 878.155 1220.62 836.627 1220.62 836.627L1216.29 837.108C1213.79 845.414 1199.9 894.165 1206.97 928.969C1214.74 967.127 1221.2 970.996 1210.85 986.524L1210.66 986.8Z" fill="black"/>
</g>
<path d="M1180.67 843.557L1186.95 878.551L1193.83 839.584L1220.57 836.627C1220.57 836.627 1220.33 878.224 1220.33 888.782C1220.33 899.341 1224.95 947.558 1226.28 964.445C1227.6 981.331 1218.68 986.8 1206.47 987.212C1194.26 987.625 1184.34 976.327 1180.38 953.542C1176.43 930.758 1181.03 889.161 1179.06 882.231C1177.08 875.301 1168.74 846.91 1168.74 846.91L1180.67 843.557Z" stroke="#263238" stroke-linecap="round" stroke-linejoin="round"/>
<path d="M970.762 979.921C970.762 979.921 969.971 985.235 974.786 986.438C979.6 987.642 991.173 984.633 992.136 982.157C992.423 981.478 992.504 980.73 992.369 980.005C992.235 979.281 991.891 978.612 991.38 978.081H980.821C980.821 978.081 972.86 975.622 970.762 979.921Z" fill="white" stroke="#263238" stroke-linecap="round" stroke-linejoin="round"/>
<path d="M923.49 922.624L967.254 953.027L970.521 948.676L926.551 918.015L923.49 922.624Z" fill="#263238" stroke="#263238" stroke-linecap="round" stroke-linejoin="round"/>
<path d="M933.653 929.674L937.057 925.341L926.551 918.015L923.49 922.624L933.653 929.674Z" fill="white" stroke="#263238" stroke-linecap="round" stroke-linejoin="round"/>
<path d="M977.623 979.457C984.473 979.134 990.993 976.414 996.04 971.77C1003.88 964.135 1004.41 959.028 993.822 948.057C983.229 937.086 960.066 949.931 959.326 954.781C958.587 959.63 977.623 979.457 977.623 979.457Z" fill="white" stroke="#263238" stroke-linecap="round" stroke-linejoin="round"/>
<path d="M1001.06 959.63C1001.06 959.63 998.069 965.872 995.232 968.228C992.394 970.584 987.889 971.22 985.224 967.42C982.558 963.619 979.824 951.823 977.502 951.582C975.181 951.341 963.608 947.541 960.306 942.984C957.005 938.427 957.177 934.902 964.451 937.069C971.725 939.235 991.191 941.763 991.191 941.763C991.191 941.763 995.799 944.532 998.998 954.248" fill="white"/>
<path d="M1001.06 959.63C1001.06 959.63 998.069 965.872 995.232 968.228C992.394 970.584 987.889 971.22 985.224 967.42C982.558 963.619 979.824 951.823 977.502 951.582C975.181 951.341 963.608 947.541 960.306 942.984C957.005 938.427 957.177 934.902 964.451 937.069C971.725 939.235 991.191 941.763 991.191 941.763C991.191 941.763 995.799 944.532 998.998 954.248" stroke="#263238" stroke-linecap="round" stroke-linejoin="round"/>
<path d="M963.625 974.247C964.657 975.519 968.045 981.28 969.644 981.675C971.243 982.071 981.062 975.829 984.845 971.065C988.628 966.302 981.578 959.699 979.566 958.77C977.554 957.842 963.625 974.247 963.625 974.247Z" fill="white" stroke="#263238" stroke-linecap="round" stroke-linejoin="round"/>
<path d="M958.621 957.051C958.621 957.051 950.023 962.209 952.07 965.752C954.116 969.294 960.994 974.676 963.195 973.731C965.397 972.785 980.22 965.889 980.151 962.123C980.082 958.357 979.841 953.869 972.258 954.488C967.637 954.875 963.068 955.734 958.621 957.051Z" fill="white" stroke="#263238" stroke-linecap="round" stroke-linejoin="round"/>
<path d="M950.023 942.761C950.023 942.761 945.845 951.255 949.679 954.935C953.514 958.615 977.193 958.529 978.397 954.196C979.6 949.863 970.727 948.934 964.21 946.131C957.693 943.328 950.935 940.749 950.023 942.761Z" fill="white" stroke="#263238" stroke-linecap="round" stroke-linejoin="round"/>
<path d="M1041.85 987.006C1041.85 987.006 1041.2 975.777 1031.29 971.822C1021.39 967.867 1016.09 969.5 993.976 975.45C980.04 979.095 965.768 981.308 951.382 982.053V987.006H1041.85Z" fill="white" stroke="#263238" stroke-linecap="round" stroke-linejoin="round"/>
<path d="M1041.49 987.006C1041.49 987.006 1042.14 975.777 1052.05 971.822C1061.95 967.867 1067.23 969.5 1089.36 975.45C1103.29 979.095 1117.56 981.307 1131.94 982.053V987.006H1041.49Z" fill="white" stroke="#263238" stroke-linecap="round" stroke-linejoin="round"/>
<path d="M1135.62 985.028H949.077V988.657H1135.62V985.028Z" fill="#263238" stroke="#263238" stroke-linecap="round" stroke-linejoin="round"/>
<path d="M840.295 988.657H1439.85" stroke="#263238" stroke-linecap="round" stroke-linejoin="round"/>
<path d="M1432.97 888.954H1305.86L1262.61 988.984H1389.73L1432.97 888.954Z" fill="white" stroke="#263238" stroke-linecap="round" stroke-linejoin="round"/>
<path d="M1437.93 888.954H1310.81L1267.57 988.984H1394.68L1437.93 888.954Z" fill="#263238" stroke="#263238" stroke-linecap="round" stroke-linejoin="round"/>
<path d="M1362.92 949.828C1359.65 954.987 1353.53 957.016 1349.25 954.299C1344.96 951.582 1344.09 945.202 1347.39 940.026C1350.69 934.85 1356.78 932.856 1361.15 935.556C1365.51 938.255 1366.18 944.669 1362.92 949.828Z" fill="white" stroke="#F5C67F" stroke-linecap="round" stroke-linejoin="round"/>
<path d="M1264.26 985.029H1171.49V988.657H1264.26V985.029Z" fill="white" stroke="#263238" stroke-linecap="round" stroke-linejoin="round"/>
</svg>
