<svg width="1440" height="128" viewBox="0 0 1440 128" fill="none" xmlns="http://www.w3.org/2000/svg">
<mask id="mask0_0:1" style="mask-type:alpha" maskUnits="userSpaceOnUse" x="0" y="0" width="1440" height="111">
<path d="M0 0H1440V86C1440 99.8071 1428.81 111 1415 111H25C11.1929 111 0 99.8071 0 86V0Z" fill="white"/>
</mask>
<g mask="url(#mask0_0:1)">
<path d="M720 25.6338C720 32.2692 720 47.0346 641.538 52.2931C575.886 52.2931 581.582 30.716 527.473 52.2931C447.722 106.66 323.077 52.441 323.077 82.171C323.077 100.464 311.868 112.049 240 120.585C63.2967 150.463 0 82.8622 0 45.3121C0 18.4644 4.68311e-05 3.24522 0 -3C82.2857 -3 128.52 -3 292.645 -3C425.888 -3 524.547 0.148972 635.533 0.149112C704.976 0.1492 720 18.9984 720 25.6338Z" fill="#FFF3E1"/>
</g>
<path d="M446 18.2824C446 31.8203 357.804 30.6916 327.703 39.7826C282.564 53.4155 143.278 35.5577 202.794 56.032C245.41 74.3127 207.57 79.025 181.277 80C46.1993 80 0 61.6001 0 33.1775C0 12.8557 2.90093e-05 1.33589 0 -3.39128C50.9714 -3.39128 79.6112 -3.39129 181.277 -3.39128C316.356 -3.39128 446 -9.69706 446 18.2824Z" fill="#EEF3FF"/>
<path d="M897 74.9237C897 53.0052 1004.38 54.8326 1041.02 40.1139C1095.98 18.0416 1265.56 46.9542 1193.1 13.8053C1141.22 -15.792 1187.29 -23.4215 1219.3 -25C1383.75 -25 1440 4.79025 1440 50.8079C1440 83.7099 1440 102.361 1440 110.014C1377.94 110.014 1343.07 110.014 1219.3 110.014C1054.84 110.014 897 120.224 897 74.9237Z" fill="#EEF3FF"/>
</svg>
