<svg width="343" height="43" viewBox="0 0 343 43" fill="none" xmlns="http://www.w3.org/2000/svg">
<mask id="mask0_97:194" style="mask-type:alpha" maskUnits="userSpaceOnUse" x="0" y="6" width="343" height="32">
<path d="M0 6.98535H343V13.0001C343 26.8072 331.807 38.0001 318 38.0001H25C11.1929 38.0001 0 26.8072 0 13.0001V6.98535Z" fill="white"/>
</mask>
<g mask="url(#mask0_97:194)">
<path d="M171.5 14.1478C171.5 16.0019 171.5 20.1275 152.811 21.5968C137.173 21.5968 138.53 15.5679 125.641 21.5968C106.645 36.7876 76.9551 21.6381 76.9551 29.945C76.9551 35.0561 74.2852 38.2932 57.1667 40.6784C15.0769 49.0267 0 30.1381 0 19.6462C0 12.1446 1.11549e-05 7.89221 0 6.14722C19.6 6.14722 30.6128 6.14722 69.7065 6.14722C101.444 6.14722 124.944 7.02708 151.38 7.02712C167.921 7.02714 171.5 12.2938 171.5 14.1478Z" fill="#FFF3E1"/>
</g>
<path d="M106.235 12.0934C106.235 15.8761 85.227 15.5607 78.0571 18.1008C67.3051 21.91 34.1281 16.9203 48.3044 22.6411C58.4553 27.7489 49.442 29.0656 43.1793 29.338C11.0044 29.338 0 24.1969 0 16.2553C0 10.5771 6.90985e-06 7.35834 0 6.03751C12.1411 6.03751 18.9629 6.03751 43.1793 6.03751C75.3541 6.03751 106.235 4.27561 106.235 12.0934Z" fill="#EEF3FF"/>
<path d="M213.66 27.9199C213.66 21.7956 239.237 22.3062 247.966 18.1936C261.057 12.0263 301.449 20.1048 284.19 10.8427C271.831 2.57283 282.805 0.441058 290.43 -1.45031e-06C329.602 -1.45031e-06 343 8.32374 343 21.1816C343 30.3748 343 35.5861 343 37.7246C328.218 37.7246 319.913 37.7246 290.43 37.7246C251.257 37.7246 213.66 40.5772 213.66 27.9199Z" fill="#EEF3FF"/>
</svg>
